<svg style="object-fit:cover" id="my-svg" version="1" baseProfile="full" width="100%" height="100%" viewBox="0 0 1366 657" xmlns="http://www.w3.org/2000/svg"><rect width="1366" height="657" fill="#878787"/><defs><linearGradient id="linear-gradient" x1="0" x2="1" y1="0" y2="1"><stop offset="0%" stop-color="#c81d1190"/><stop offset="100%" stop-color="#ba341c90"/></linearGradient></defs><path transform="scale(1, 1)" style="transform-origin:center" d="M 0,657 V 0,459 C 99.22619047619051,380.3928571428571 198.45238095238102,301.7857142857143 326,332 C 453.547619047619,362.2142857142857 609.4166666666666,501.25 738,564 C 866.5833333333334,626.75 967.8809523809523,613.2142857142858 1068,583 C 1168.1190476190477,552.7857142857142 1267.0595238095239,505.8928571428571 1366,459 C 1366,459 1366,657 1366,657 Z" stroke="none" stroke-width="0" fill="url(#linear-gradient)" class="transition-all duration-300 ease-in-out delay-150"/><defs><linearGradient id="linear-gradient" x1="0" x2="1" y1="0" y2="1"><stop offset="0%" stop-color="#c81d11ff"/><stop offset="100%" stop-color="#ba341cff"/></linearGradient></defs><path transform="scale(1, 1)" style="transform-origin:center" d="M 0,657 V 0,689 C 94.15476190476193,618.1785714285714 188.30952380952385,547.3571428571429 318,574 C 447.69047619047615,600.6428571428571 612.9166666666665,724.75 717,717 C 821.0833333333335,709.25 864.0238095238096,569.6428571428571 962,543 C 1059.9761904761904,516.3571428571429 1212.9880952380952,602.6785714285714 1366,689 C 1366,689 1366,657 1366,657 Z" stroke="none" stroke-width="0" fill="url(#linear-gradient)" class="transition-all duration-300 ease-in-out delay-150"/></svg>