<svg style="object-fit:cover" id="my-svg" version="1" baseProfile="full" width="100%" height="100%" viewBox="0 0 1880 970" xmlns="http://www.w3.org/2000/svg"><rect width="1880" height="970" fill="#ffffff"/><path transform="scale(1, 1)" d="M 0,970 V 0,582 C 150.0595238095238,654.4642857142858 300.1190476190476,726.9285714285714 444,763 C 587.8809523809524,799.0714285714286 725.5833333333334,798.7500000000001 873,733 C 1020.4166666666666,667.2499999999999 1177.547619047619,536.0714285714287 1347,500 C 1516.452380952381,463.9285714285714 1698.2261904761904,522.9642857142857 1880,582 C 1880,582 1880,970 1880,970 Z" stroke="none" stroke-width="0" fill="#21212190" class="transition-all duration-300 ease-in-out delay-150" style="transform-origin: center center;"/><path transform="scale(1, 1)" d="M 0,970 V 0,873 C 193.48809523809524,864.5 386.9761904761905,856 513,864 C 639.0238095238095,872 697.5833333333335,896.5000000000001 864,917 C 1030.4166666666665,937.4999999999999 1304.6904761904761,954 1492,946 C 1679.3095238095239,938 1779.654761904762,905.5 1880,873 C 1880,873 1880,970 1880,970 Z" stroke="none" stroke-width="0" fill="#212121ff" class="transition-all duration-300 ease-in-out delay-150" style="transform-origin: center center;"/></svg>