<svg style="object-fit:cover" id="my-svg" version="1" baseProfile="full" width="100%" height="100%" viewBox="0 0 1880 970" xmlns="http://www.w3.org/2000/svg"><rect width="1880" height="970" fill="#ffffff"/><defs><linearGradient id="linear-gradient" x1="0" x2="1" y1="0" y2="1"><stop offset="0%" stop-color="#12ca1e90"/><stop offset="100%" stop-color="#1c51ba90"/></linearGradient></defs><path transform="scale(1, 1)" style="transform-origin:center" d="M 0,970 V 0,670 C 156.84523809523813,741.4642857142858 313.69047619047626,812.9285714285714 489,756 C 664.3095238095237,699.0714285714286 858.0833333333333,513.75 1014,517 C 1169.9166666666667,520.25 1287.9761904761906,712.0714285714287 1426,769 C 1564.0238095238094,825.9285714285713 1722.0119047619046,747.9642857142857 1880,670 C 1880,670 1880,970 1880,970 Z" stroke="none" stroke-width="0" fill="url(#linear-gradient)" class="transition-all duration-300 ease-in-out delay-150"/><defs><linearGradient id="linear-gradient" x1="0" x2="1" y1="0" y2="1"><stop offset="0%" stop-color="#12ca1eff"/><stop offset="100%" stop-color="#1c51baff"/></linearGradient></defs><path transform="scale(1, 1)" style="transform-origin:center" d="M 0,970 V 0,1005 C 126.2380952380953,1067.392857142857 252.4761904761906,1129.7857142857142 430,1068 C 607.5238095238094,1006.2142857142857 836.3333333333333,820.2500000000001 1024,802 C 1211.6666666666667,783.7499999999999 1358.1904761904764,933.2142857142856 1494,995 C 1629.8095238095236,1056.7857142857144 1754.904761904762,1030.8928571428573 1880,1005 C 1880,1005 1880,970 1880,970 Z" stroke="none" stroke-width="0" fill="url(#linear-gradient)" class="transition-all duration-300 ease-in-out delay-150"/></svg>