<svg style="object-fit:cover" id="my-svg" version="1" baseProfile="full" width="100%" height="100%" viewBox="0 0 1880 970" xmlns="http://www.w3.org/2000/svg"><rect width="1880" height="970" fill="#ffffff"/><path transform="scale(1, 1)" d="M 0,970 V 0,97 C 147.4880952380953,107.46428571428572 294.9761904761906,117.92857142857143 459,121 C 623.0238095238094,124.07142857142857 803.5833333333333,119.75 949,109 C 1094.4166666666667,98.25 1204.6904761904761,81.07142857142857 1354,78 C 1503.3095238095239,74.92857142857143 1691.654761904762,85.96428571428572 1880,97 C 1880,97 1880,970 1880,970 Z" stroke="none" stroke-width="0" fill="#09040c90" class="transition-all duration-300 ease-in-out delay-150" style="transform-origin: center center;"/><path transform="scale(1, 1)" d="M 0,970 V 0,145 C 143.4880952380953,138.67857142857144 286.9761904761906,132.35714285714286 471,142 C 655.0238095238094,151.64285714285714 879.5833333333333,177.25000000000003 1016,175 C 1152.4166666666667,172.74999999999997 1200.6904761904761,142.64285714285714 1330,133 C 1459.3095238095239,123.35714285714286 1669.654761904762,134.17857142857144 1880,145 C 1880,145 1880,970 1880,970 Z" stroke="none" stroke-width="0" fill="#09040cff" class="transition-all duration-300 ease-in-out delay-150" style="transform-origin: center center;"/></svg>