<svg style="object-fit:cover" id="my-svg" version="1" baseProfile="full" width="100%" height="100%" viewBox="0 0 1366 657" xmlns="http://www.w3.org/2000/svg"><rect width="1366" height="657" fill="#ffffff"/><defs><linearGradient id="linear-gradient" x1="0" x2="1" y1="0" y2="1"><stop offset="0%" stop-color="#caab1290"/><stop offset="100%" stop-color="#ff660090"/></linearGradient></defs><path transform="scale(1, 1)" style="transform-origin:center" d="M 0,657 V 0,459 C 100.36904761904762,509.2857142857143 200.73809523809524,559.5714285714286 328,524 C 455.26190476190476,488.42857142857144 609.4166666666667,366.99999999999994 732,368 C 854.5833333333333,369.00000000000006 945.5952380952381,492.42857142857144 1046,528 C 1146.404761904762,563.5714285714286 1256.202380952381,511.2857142857143 1366,459 C 1366,459 1366,657 1366,657 Z" stroke="none" stroke-width="0" fill="url(#linear-gradient)" class="transition-all duration-300 ease-in-out delay-150"/><defs><linearGradient id="linear-gradient" x1="0" x2="1" y1="0" y2="1"><stop offset="0%" stop-color="#caab12ff"/><stop offset="100%" stop-color="#ff6600ff"/></linearGradient></defs><path transform="scale(1, 1)" style="transform-origin:center" d="M 0,657 V 0,689 C 114.76190476190479,733.6785714285714 229.52380952380958,778.3571428571429 346,807 C 462.4761904761904,835.6428571428571 580.6666666666666,848.2500000000001 678,794 C 775.3333333333334,739.7499999999999 851.8095238095239,618.6428571428571 963,590 C 1074.1904761904761,561.3571428571429 1220.095238095238,625.1785714285714 1366,689 C 1366,689 1366,657 1366,657 Z" stroke="none" stroke-width="0" fill="url(#linear-gradient)" class="transition-all duration-300 ease-in-out delay-150"/></svg>