<svg style="object-fit:cover" id="my-svg" version="1" baseProfile="full" width="100%" height="100%" viewBox="0 0 1880 970" xmlns="http://www.w3.org/2000/svg"><rect width="1880" height="970" fill="#ffffff"></rect><defs><linearGradient id="linear-gradient" x1="0" x2="1" y1="0" y2="0"><stop offset="0%" stop-color="#c81d1170"></stop><stop offset="100%" stop-color="#1c39bb70"></stop></linearGradient></defs><path transform="scale(1, 1)" d="M 0,970 V 0,582 C 108.7023809523809,603.8571428571429 217.4047619047618,625.7142857142857 383,670 C 548.5952380952382,714.2857142857143 771.0833333333335,781.0000000000001 946,757 C 1120.9166666666665,732.9999999999999 1248.2619047619046,618.2857142857142 1396,574 C 1543.7380952380954,529.7142857142858 1711.8690476190477,555.8571428571429 1880,582 C 1880,582 1880,970 1880,970 Z" stroke="none" stroke-width="0" fill="url(#linear-gradient)" class="transition-all duration-300 ease-in-out delay-150" style="transform-origin: center center;"></path><defs><linearGradient id="linear-gradient" x1="0" x2="1" y1="0" y2="0"><stop offset="0%" stop-color="#c81d1180"></stop><stop offset="100%" stop-color="#1c39bb80"></stop></linearGradient></defs><path transform="scale(1, 1)" d="M 0,970 V 0,873 C 186.30952380952385,801.5357142857142 372.6190476190477,730.0714285714286 547,682 C 721.3809523809523,633.9285714285714 883.8333333333333,609.2499999999999 1024,704 C 1164.1666666666667,798.7500000000001 1282.047619047619,1012.9285714285713 1421,1061 C 1559.952380952381,1109.0714285714287 1719.9761904761904,991.0357142857143 1880,873 C 1880,873 1880,970 1880,970 Z" stroke="none" stroke-width="0" fill="url(#linear-gradient)" class="transition-all duration-300 ease-in-out delay-150" style="transform-origin: center center;"></path><defs><linearGradient id="linear-gradient" x1="0" x2="1" y1="0" y2="0"><stop offset="0%" stop-color="#c81d1190"></stop><stop offset="100%" stop-color="#1c39bb90"></stop></linearGradient></defs><path transform="scale(1, 1)" d="M 0,970 V 0,1309 C 156.80952380952385,1274.3214285714284 313.6190476190477,1239.642857142857 461,1261 C 608.3809523809523,1282.357142857143 746.3333333333333,1359.75 922,1387 C 1097.6666666666667,1414.25 1311.047619047619,1391.3571428571431 1477,1370 C 1642.952380952381,1348.6428571428569 1761.4761904761904,1328.8214285714284 1880,1309 C 1880,1309 1880,970 1880,970 Z" stroke="none" stroke-width="0" fill="url(#linear-gradient)" class="transition-all duration-300 ease-in-out delay-150" style="transform-origin: center center;"></path><defs><linearGradient id="linear-gradient" x1="0" x2="1" y1="0" y2="0"><stop offset="0%" stop-color="#c81d11ff"></stop><stop offset="100%" stop-color="#1c39bbff"></stop></linearGradient></defs><path transform="scale(1, 1)" d="M 0,970 V 0,1964 C 143.2380952380953,1901.5357142857142 286.4761904761906,1839.0714285714287 458,1871 C 629.5238095238094,1902.9285714285713 829.3333333333333,2029.25 967,2047 C 1104.6666666666667,2064.75 1180.1904761904761,1973.9285714285716 1322,1942 C 1463.8095238095239,1910.0714285714284 1671.904761904762,1937.0357142857142 1880,1964 C 1880,1964 1880,970 1880,970 Z" stroke="none" stroke-width="0" fill="url(#linear-gradient)" class="transition-all duration-300 ease-in-out delay-150" style="transform-origin: center center;"></path></svg>