<svg style="object-fit:cover" id="my-svg" version="1" baseProfile="full" width="100%" height="100%" viewBox="0 0 1880 970" xmlns="http://www.w3.org/2000/svg"><rect width="1880" height="970" fill="#ffffff"/><defs><linearGradient id="linear-gradient" x1="0" x2="1" y1="0" y2="1"><stop offset="0%" stop-color="#ffc7f590"/><stop offset="100%" stop-color="#1bf3cf90"/></linearGradient></defs><path transform="scale(1, 1)" style="transform-origin:center" d="M 0,970 V 0,670 C 58.78013009327444,723.3506995581738 117.56026018654887,776.7013991163476 211,776 C 304.4397398134511,775.2986008836524 432.53908934707897,720.5451030927836 510,714 C 587.460910652921,707.4548969072164 614.283382425135,749.1181885125183 683,723 C 751.716617574865,696.8818114874817 862.327380952381,602.9821428571429 947,584 C 1031.672619047619,565.0178571428571 1090.4070937653412,620.9532400589101 1158,612 C 1225.5929062346588,603.0467599410899 1302.0442439862545,529.2048969072164 1383,484 C 1463.9557560137455,438.79510309278356 1549.4159302896417,422.2271723122239 1633,458 C 1716.5840697103583,493.7728276877761 1798.2920348551793,581.886413843888 1880,670 C 1880,670 1880,970 1880,970 Z" stroke="none" stroke-width="0" fill="url(#linear-gradient)" class="transition-all duration-300 ease-in-out delay-150"/><defs><linearGradient id="linear-gradient" x1="0" x2="1" y1="0" y2="1"><stop offset="0%" stop-color="#ffc7f5ff"/><stop offset="100%" stop-color="#1bf3cfff"/></linearGradient></defs><path transform="scale(1, 1)" d="M 0,970 V 0,1005 C 93.73521109474717,915.1157952871871 187.47042218949434,825.2315905743742 256,869 C 324.52957781050566,912.7684094256258 367.85352233676986,1090.1894329896907 445,1173 C 522.1464776632301,1255.8105670103093 633.1154884634266,1244.010677466863 714,1232 C 794.8845115365734,1219.989322533137 845.6845238095239,1207.767857142857 927,1136 C 1008.3154761904761,1064.232142857143 1120.1464162984782,932.9178939617084 1190,860 C 1259.8535837015218,787.0821060382916 1287.7298109965634,772.5605670103093 1369,789 C 1450.2701890034366,805.4394329896907 1584.9343397152677,852.8398379970546 1679,894 C 1773.0656602847323,935.1601620029454 1826.532830142366,970.0800810014728 1880,1005 C 1880,1005 1880,970 1880,970 Z" stroke="none" stroke-width="0" fill="url(#linear-gradient)" class="transition-all duration-300 ease-in-out delay-150" style="transform-origin: center center;"/></svg>