<svg style="object-fit:cover" id="my-svg" version="1" baseProfile="full" width="100%" height="100%" viewBox="0 0 1880 970" xmlns="http://www.w3.org/2000/svg"><rect width="1880" height="970" fill="#ffffff"/><defs><linearGradient id="linear-gradient" x1="0" x2="1" y1="0" y2="1"><stop offset="0%" stop-color="#ff000090"/><stop offset="100%" stop-color="#00fa2a90"/></linearGradient></defs><path transform="scale(1, 1)" style="transform-origin:center" d="M 0,970 V 0,670 C 125.95238095238102,582.1071428571429 251.90476190476204,494.21428571428567 433,523 C 614.095238095238,551.7857142857143 850.3333333333333,697.2500000000001 1003,688 C 1155.6666666666667,678.7499999999999 1224.7619047619048,514.7857142857142 1357,486 C 1489.2380952380952,457.2142857142857 1684.6190476190477,563.6071428571429 1880,670 C 1880,670 1880,970 1880,970 Z" stroke="none" stroke-width="0" fill="url(#linear-gradient)" class="transition-all duration-300 ease-in-out delay-150"/><defs><linearGradient id="linear-gradient" x1="0" x2="1" y1="0" y2="1"><stop offset="0%" stop-color="#ff0000ff"/><stop offset="100%" stop-color="#00fa2aff"/></linearGradient></defs><path transform="scale(1, 1)" style="transform-origin:center" d="M 0,970 V 0,1005 C 123.13095238095241,931.8214285714286 246.26190476190482,858.6428571428571 411,818 C 575.7380952380952,777.3571428571429 782.0833333333333,769.25 963,844 C 1143.9166666666667,918.75 1299.404761904762,1076.357142857143 1448,1117 C 1596.595238095238,1157.642857142857 1738.297619047619,1081.3214285714284 1880,1005 C 1880,1005 1880,970 1880,970 Z" stroke="none" stroke-width="0" fill="url(#linear-gradient)" class="transition-all duration-300 ease-in-out delay-150"/></svg>